<mxfile host="app.diagrams.net" agent="Mozilla/5.0 (Windows NT 10.0; Win64; x64) AppleWebKit/537.36 (KHTML, like Gecko) Chrome/132.0.0.0 Safari/537.36 Edg/132.0.0.0" version="26.0.11">
  <diagram name="第 1 页" id="ILxygCix3L20rj_tYbkZ">
    <mxGraphModel dx="1425" dy="763" grid="1" gridSize="10" guides="1" tooltips="1" connect="1" arrows="1" fold="1" page="1" pageScale="1" pageWidth="827" pageHeight="1169" math="0" shadow="0">
      <root>
        <mxCell id="0" />
        <mxCell id="1" parent="0" />
        <mxCell id="e9APgle3LdxRnGONQ-Bw-55" value="" style="rounded=0;whiteSpace=wrap;html=1;fillColor=#f8cecc;strokeColor=#b85450;" vertex="1" parent="1">
          <mxGeometry x="89" y="430" width="942" height="370" as="geometry" />
        </mxCell>
        <mxCell id="e9APgle3LdxRnGONQ-Bw-2" value="" style="rounded=0;whiteSpace=wrap;html=1;fillColor=#fff2cc;strokeColor=#d6b656;" vertex="1" parent="1">
          <mxGeometry x="90" y="810" width="940" height="150" as="geometry" />
        </mxCell>
        <mxCell id="e9APgle3LdxRnGONQ-Bw-3" value="云计算集群" style="rounded=0;whiteSpace=wrap;html=1;fillColor=#ffe6cc;strokeColor=#d79b00;" vertex="1" parent="1">
          <mxGeometry x="90" y="810" width="940" height="30" as="geometry" />
        </mxCell>
        <mxCell id="e9APgle3LdxRnGONQ-Bw-5" value="" style="rounded=0;whiteSpace=wrap;html=1;fillColor=#ffe6cc;strokeColor=#d79b00;" vertex="1" parent="1">
          <mxGeometry x="100" y="850" width="320" height="100" as="geometry" />
        </mxCell>
        <mxCell id="e9APgle3LdxRnGONQ-Bw-6" value="计算资源池" style="rounded=0;whiteSpace=wrap;html=1;" vertex="1" parent="1">
          <mxGeometry x="100" y="850" width="320" height="30" as="geometry" />
        </mxCell>
        <mxCell id="e9APgle3LdxRnGONQ-Bw-7" value="" style="shape=image;imageAspect=0;aspect=fixed;verticalLabelPosition=bottom;verticalAlign=top;image=https://www.hiascend.com/_static3/logo1.BQ2XZIjU.svg;" vertex="1" parent="1">
          <mxGeometry x="320" y="896.5" width="84" height="32" as="geometry" />
        </mxCell>
        <mxCell id="e9APgle3LdxRnGONQ-Bw-8" value="" style="shape=image;imageAspect=0;aspect=fixed;verticalLabelPosition=bottom;verticalAlign=top;image=data:image/png,iVBORw0KGgoAAAANSUhEUgAAAHgAAAAnCAYAAADEvIzwAAAAAXNSR0IArs4c6QAAAARnQU1BAACxjwv8YQUAAAAJcEhZcwAADsMAAA7DAcdvqGQAAAbTSURBVHhe7ZlrTFRHFMf51KZKUQn9QmpCkNTEisYY5IMGiTWVEktSDal9JYUIIQRSI0rsQ4ukRgEltiTlEanSFBVLRa2aKiAKWqwFhJVHsTzEiktBQLLgC83pnmFmdmbcC5dd90Nv7i85Ye//nLnenf+dx45eYGJoTIMNjmmwwTENNjimwQbHNNjgmAYbHNNgg+OSwZ2DVS80TDyHSwaXd6RB6jmvFxJ518LpXU08gWmwwZmWwaNPBqB7+DJUdWXA6fYUONz0ATHoqwpvp+bpCdNgzzKlwSOPeuFyz3dQWP8ONwVHsMqt4StwxPKxZJ6ecGZwVVWVrlDRU4No1TnTEFVn0djYCF1dXTA4OAjj4+O0WkZto4Vax8JdNA1GY9HIby76cyPwurX/V/I37YIv5FwNJZ/b7/1GWwG09J8ktaqRWqFlsJeX15QREBAAmZmZtBXA3bt3Yfbs2TwfGBgIVquVZh1kZGRI90lPTyd6eHi4pDNU3VnMnTsXcnJyaAsHYg3eR4sFCxZItRgLFy6kWddxarBo7KHrUWRaFsE8GvN5+UvcqJ+bY6F/9C9aAVB9K5vnJgt3DGaRkJBAWwKsW7dOypWWltKMg/Xr10s1OBIRdwxmkZYmz25iTstgi8Ui1Ylx8+ZNWuUaksG4xv7UGM07/9qdQpoBMnJPtiXDvitvEoORJ08fQFv/aThs+ZDU77zgB3W9B0kO6Rn+nd9LK/QYjB2jhpjHYB2Lo0jUN2/eTHRGb28v+Pn58Tzei6Hel6Hq+G9hbNy4EZYsWSLlMGpqamhLfQbHxMTwmlWrVkFISAi/TkpKolWuwb8FjlI0j3V8U98xot++/wccbHiXaDiqj1o+gfMdXxNjRbCetb3UvZeqEzDdWegxWB0VCGpizYYNG4iOBop6aGgo0RllZWVSPjs7m2b0GywyNjb23LOIL5Woaxks1uTl5ZFlR9TcgbcWO52Z2/zvcbLWonaiLYmsy0j1rX1EYyMZefrsMfx4/T2i44vSZ2umGZBmBTVcNRg7Vhw9+JmhGtLU1EQz9u+ZmirlOjo6aMY1gxmrV6/m+eDgYKpObXBubi7Pz5kzh2zYcOMmtispKaHV04c/7S8t8bzTcdeMjDy6w7Xhh7eJhlzszuQ6vgzDD3ug4M+3uKbXXAxXDUaio6N5zYwZM6gKZNMktsdNFWPRokVcx+lQxB2DY2NjpZqhoSGii5ozg8WXVJyOIyMjuR4WFkbV6cOfduhBN+yuDiCdjn/xGmEG4QhmVHXt4QZN7KZD+LWWudsrX+WfxXDH4E2bNkl1DHWaXrt2LdFbWlokvaCggOgMdwzeunWrVIPfARE11eD6+nopX1tbSzMAhYWFUq61tZVmpof0tLhBYh1fcuNTolltN2BPdSDRrv6TT7TKzl28jgW+FFabheTRZNFcZuKdkTryWWznjsHq2ieyePFirvv6+hJt//79Un1fXx/RGe4YrO7M+/v7iS5qqsFxcXE8t3z5cqpOMDAwADNnzuT5bdu20cz0eO5p0VjW+Re6dhMN/0Pgi/KXiYZTeUVnOq/JrAkiu+uH4/ftMULW5R2VPjyPJ14q162HIavmDZL3lMFqrqKiAiIiIvj1ihUraKUDVw0eHR0FHx8fnp83bx7NTG6wt7e3lHMWLD9r1izaano4fR3FUVZ7+3uitQ2c4eajiThK2e/esSeDZN0Wd+E/1EdCx2AlyYvgbv1A3du8zlMGq9N0SkqKdF1UVEQrHYgdisHQ0pGzZ89CUFCQlI+Pj6dZbYNxtyzm9ERxcTFtrR+nBiNs94zRZD1K1Ym1Gg3GON6SAIX1EbwOI/damP338wFa7WDwQSecaU+VajE8ZTCCp0ssp54U2Ww2WuVAr8F4jaEay6Kuro621DZ45cqVXPf39+f3VENsv2bNGtpaP5oGI0csH3Ej8JwZDy4ePx0l5jL9y/JXIPtKMBxrjoH2e+doywnGnz2CRvvLUdz0Pp/i1fCkwWqexbJly2iFjNqhDFWfLPbulc8AxBzeB8EXQNS1vh+ydOlSqRZPvRoaGiAxMVHXIcikBiO4/pa1JsLOqteIIbsuvW5fcz8jOv48UrE97rNv1g5BaUsc35xNFp40WJ2mWai7Z4YrBs+fPx+ioqLIjh6fW0WsZQarywU+pxb5+flS7ZYtW+DUqVOQlZUFycnJtEqbKQ1m4CYKT6/Od+yAc39vJwbj8WV9b5F9/f2WjGrx55LecGawydRUV1dDT8/zA0xFt8Ei4hTtbpgGexbTYIPjksE4Pb/IMPEcLhls8v/BNNjgmAYbHNNgg2MabHBMgw2OabDBMQ02OKbBhgbgPyEyCeam0sQJAAAAAElFTkSuQmCC;" vertex="1" parent="1">
          <mxGeometry x="190" y="893" width="120" height="39" as="geometry" />
        </mxCell>
        <mxCell id="e9APgle3LdxRnGONQ-Bw-9" value="deepseek大模型" style="shape=ext;double=1;rounded=1;whiteSpace=wrap;html=1;" vertex="1" parent="1">
          <mxGeometry x="100" y="710" width="920" height="80" as="geometry" />
        </mxCell>
        <mxCell id="e9APgle3LdxRnGONQ-Bw-12" value="" style="shape=image;imageAspect=0;aspect=fixed;verticalLabelPosition=bottom;verticalAlign=top;image=data:image/jpeg,iVBORw0KGgoAAAANSUhEUgAAAWMAAAFYCAYAAACGf52PAAAAAXNSR0IArs4c6QAAAARnQU1BAACxjwv8YQUAAAAJcEhZcwAADsQAAA7EAZUrDhsAACcGSURBVHhe7Z1tjiRLjl37qSHojwBtRyvQDmYNA61ImDXMDrQCbUeA/ghCz1Pc6LwxN5k0cw+PL/Psc4AH0kgaSbdwZ3lF5av6488LfwEAgI/yH74kAAB8EIYxAMACMIwBABaAYQwAsAAMYwCABWAYAwAsAMMYAGABGMYAAAvAMAYAWACGMQDAAjCMAQAWgGEMALAADGMAgAVgGAMALADDGABgARjGAAALwDAGAFgAhjEAwAIwjAEAFoBhDACwAAxjAIAFYBgDACwAwxgAYAEYxgAAC8AwBgBYAIYxAMACMIwBABaAYQwAsAAMYwCABWAYAwAsAMMYAGABGMYAAAvAMAYAWACGMQDAAjCMAQAWgGEMALAADGMAgAVgGAMALADDGABgARjGAAALwDAGAFgAhjEAwAIwjAEAFoBhDACwAAxjAIAFYBgDACwAwxgAYAEYxgAAC8AwBgBYAIYxAMACMIwBABaAYQwAsAAMYwCABWAYAwAsAMMYAGABGMYAAAvAMAYAWACGMQDAAjCMAQAWgGEMALAADGMAgAVgGAMALADDGABgARjGAAALwDAGAFgAhjEAwAIwjAEAFoBhDACwAAxjAIAFYBgDACwAwxgAYAEYxgAAC8AwBgBYAIYxAMACMIwBABaAYQwAsAAMYwCABWAYAwAsAMMYAGABGMYAAAvAMAYAWACGMQDAAjCMAQAWgGEMALAADGMAgAVgGAMALADDGABgARjGAAALwDAGAFgAhjEAwAIwjAEAFoBhDACwAAxjAIAFYBgDACwAwxgAYAEYxgAAC8AwBgBYAIYxAMACMIwBABbgjz8vfOkAAB/lj//+P7+05/Hn//hvX9rafGQY//G//u1Lez5//lde9gHOynUY/9v/vvye/b88TZ5lGDO5AGAtNEgtPVgfWZ8EhjEArIUHaA5W23LAjvyirk8AwxgA1sIDNAdv1S07v6RjbDsBnxnGf/vblwIAEORAFd0Qzpi0We/2nAD+AA/exj/yn5TDPr7dI92wTZvp4sxl/ee//NPXYm14M4b3ooflmRJ+F/n5dgO2DNorsqUu6voEfGYY//WvXwr8w5EPVX3Ijqzhd9F9vqmndGzVRe45CbwZw3sZPUyiPnSdX9Q1/C66+8G6P/PO1+kngjdjeC97HibLzi/pGNvgd5Gfr3WR94Ho4k58f/BmDO/DD4dlPlz1AZLsHrBuD/wu8vPN+0Fs2XxPaH2y+4M3Y3gffjjqw5MPV8aItOUe4TX8LvKe8Ged2J/3Qb0n6voE8GYM78MPxuhBshT5UKUu6hp+F3lPiFyP7ot6T9T1CeDNGN6HH4zRg5QyH6rURe6B30e9J0b3gnUx23MSeDOG9+KHIx8e636AOl+nw++jfr5bn7/XkqM9J4E3Y3gv+RDlg5IPkOjiqg6/j+7znX3+XkvWPSe7R3gzhveSD5H1vTbpQmvr8Lu4516Y+SVPdo/wZgzvpT5QFfvtq7qoa/g9dJ+7ZPfZz/xpOwm8GcN7yYdI5DofqJEu6hp+F1v3RPpFF19jTgBvxvBeRg/VSBezPfD72LonZvdDxgjHnQDejOF9+MHoHqqqC68lR3vg97Hnnti6H054j/BmDO+jPlAibdXvtWTdk2v4XeTnm7qk74nR/dDtOwm8GcP76B6Uzrbll9Qafh/d5+3Putq6+8EybSfhI//SB/xjcvtXHOqDcu9afNn4lz5+F+09csf90O3jn+oH6KgPi/BDJNIvuvgaA78Hf8b5mdfPX+u8F4Rt3b6TwDCG99I9LKlL+gGbxQjHwe+hfrbd51/vha3Yk8AwhveSD073EAmvuxjR2eD3oM+3uyfq5z5bV98JYBjDe6kPinXJ+lCJGiPSBr+PvA9Guqj3xiz2BDCM4X10D5EfmmqzLpkxIm3w++jug+6z33NvpL44DGN4H90D44dNyOa1/WlLX+6D30W9D/KzHvnSJqr9BDCM4X10D0x9eEYPWI21Dr+L7j7Iz110vrRJpv0kMIzhffjB6B6yTpfcioXfxexzrveD9bRZVt8JYBjDe9HDsfWQidm6+uD30H3uW3raLKvvBDCM4b10D1PVhdbdw9XFwu+huw/E1j2QNknbTwTDGN6LH5J8YEYPWT5cIm0idfg91PtAaJ16ZRZ/Evi7KRbn9v/q38Gq/y/+3X/vgPVRzEX++S//9GX8nRz5/MVZ/86Ob9fb3Qupb/m/OMtZMIwXo3346s23VwYr3JB//PO//ntftcdcN/2Pru2sQ2fEj8+/Xve9MjjDWV2vP3uv1zFbD3wM4w2O/oo/48ihP7uPh3vwDVWl2Vqbwf5P3pi368yetvTS/5WZ705WeFCnn39SbXvXTa5VB9TmPSJma+thW/VaK5/9zlgH9kx5lL3598qd6E3x280nyo307SYT3dp6ysF+1/w2AN5F9iyyz5Fe+m99Iv33yA/hz+Db56Ce9ly3bVp3fpHrJldbfwXcY17b6DpHsZa2nYTPDuN6cI+uj7KV9571Tq4PgeMzR9Utq03r1JP01Zjwvf1BdA+1J61HuqVtkmm3rP49a+9/I7cB6Nop3WNnS1+nS3b7OluJvfW0Atl3p2fvIz1tJ2KdN2Mf3OhwO7+o6yPcW6eLF7ZPuN74+u5UdDmznvXq72LFaK9wTPou+tsfxFL/itYz3fGiroXXuU90OXN/zfNCbudce6q9jGyWXZzYm0sMYt9+L3SoN6G+UhdbPus1/iSs9Wbc6ZadX9Ixth3h3jpdfNoH3G70bn/qYrZOXVJr66L6hW0ZG/rbHsJB/ZsupMtmXXTrzme9+q3XPW/gdrajntzLlm22V+vcIzqbZN1bbB8dyO5DZP8i1zNfxpyIzw3j7uDqIWZM2qx3e46wp45Im+hiGnRzX2/wrGPZ5bZf663Y0f70O8dG7K3PV5K9dH1ZVlvGV3+ndzbhHG/gx+euPlKvbNlGeWrOzp8+sWF7y70wwr1nj7Zp3ekZW/echM8N4zy4ew43dVHXR8g6mdf6qFYXU/jxMFrKlvm29JHfcubX2rrIdepf8qUP4ay21mIUM/KL3G9fZ+tyvIDbGdYe9vS4xzbLKWb+2Z6MufCRgezesp/st9MzNvdYPwFrvBmPDtd0h5t7RMbfg/fPaqRNMmt3MV/cvhuu+0XanEN09tybNuuz/Z2+ledie8lD2PXS1L7SxXgtaZvIdeqdbZTjifz4BTh1kbWrf9RXt1d0+0XaRO6b7Wli3j6Qu35sq72bjB3FLM7ab8aWjq26yD1HcL7Mk3raLEdx/+k//1033iPfaL/IHCJjxGhv3Zc+oXWnj/yWtj2brbpC9k7PPSN71U3GdzmehIbWt1+ARdfTbN35rItcz/bXuIwRW3tErN86kLt+qi68lqy2jD8Jn/0DvO7grPtwO1+nP0rWrPWFa83i/t9f/65f+PF2JHLd5Ut7jbHMXHVf+kTmqL6MTyLu6Q9g14t1yS2/me3r9IzvbE+gHcLinp5GsaN9s/2jOOtitnYerb/0twxk123qf9Ml3esoxv6T8Nlh7MPKgxV5oKKLq/ojbOWV9FvvVtyF200rf/q6vffEdD7vHflGcZK2TeJuQ+YZdDW2eki/ZRcnqs/6yOb9D3L9vLOGyPxb9bdiR/tm+0dxotsnmf6B/vKB7FrZW9dL+kuP3/QTsd6b8V5bd/hH2corqbdex6SvxF1v1i6uixc1xntHMaKLy/VIF15L2pa+GndZP+0BzF5Stxz5pY/ixGif8Dpz1JgH+PaLVa2R+Uf1ay8zn8g8s/2juLSPYmb6hZcP5K625Ff9K7luevwRfwI+/2ZcDzGxvzvg7vAfoctrvdZKX1e/ixvFZ4wY7elsootJ3yiu2kXNkb5nkDX31Bdd7Gw98kmmzfqjjGqnLu6J6/ZYzuLTn3bR2W3r1iP9S750IHc9pq3raWt9Aj7/ZuxDE6NDHumiro/gHJKZ13qtVeOE1um3HOXI+Lq329PZRO7d8m3pkpkj9Kc8fF3NUX1R1/qqqIu1reYVo/jMe5Bvvwsa1a591Lit/UnaO91S1JiUsqetxqU/fda/5EsGclfXMutnXBeT/pOwzptxPcj8yYS0d4dt/SjOMasjufW9sXXJUY69e4Xllq36nUvUOJExqW/5HyXzSK99pU3S522bvirqYrtcdT2KP8htEI3ySrr2SBej/cJxaR/lSr/IPda7fV1c1UWuQz59ILuv7MOy9iNk62Jq/An43DCeHbb0+h2tGB22cxxhlu8//u3vUsjmn5aY7enW1kfx1kWNF7McNV/aqm+2T4z8X/rDD55z1tppt03S90AXJ6K3zbfmarN+gG9vxKO8na3WdQ7ZOj2l99VYMfOPdHE0znbLZ9L1sWUTXcwr+nshn//7jHVweWiz9Yb+0N8lPMotvB7F7PWb0Trs9VpuA2CUp/pEk3eYYxYjvmyP/N2w34Z5V1ds2U1dVzp/2r70e6/n2zWYJu+P+l1M1cVofZFb/6rJj3uk5hKj/Ga0v9PD9qy/M7h9HsVoPYv70p/V26v53DDWn0KXQ+sOcqqLWB859HZApD6p98NnRjGdfpFH/+mg9saNvDebuDdGDOKO3ty3z7zWMXvsnT6SXUzaLtw9jOs1DPLeGPlrbON7dIj8uD/21hej2BonvmzPGHrf5oLoanc9iC72wjP6egdrvxnf6Tsy1K59zOqIvetZXKM/6ybZdZZmK8brif3hXzxErZP1Zraiv/NB+9a/2Opvy1/1C6+6nvYesT7pZ+hr9j5lGM/6TGr9UfxFP8u/k7jOT1NIFz5Y62Kv7yi5V/lG61ntUVyj6+Z45kOnXNd8s/ppE6MY+y3FyH6UzGe8rrXcW34nnPZ34ppdH+45sU0x6a/7LvrtM3wR7T1ivbOV/m66qHu//D9+sTrCqK71amv6+KGfhM//NIXIQ6262PJZP4r3b+VPXTL/tD/3TfRXP3BXsk/XN9WePea+lBl74aGHruYruX/0YH/+JEXa38T1ml0ze8yeLKttI+adb27tPdL1OdJF7hV1/QhdXWE9a2Ws6PY+q6838Pk3YzE64O6wZ3uO4v1Zb0uX9E9X2CakD3p85SA21xrZp6h9m7TXnjO++h6h5hNZr9Y23pP+d9P1YJvprmMUc+ETv4X+cY/UPrW+R5f8yvHw23HmF1nDsvoGvVxJfXHW+Tnj1MXI58PNQ899R/D+rRr1515Hstn/jkFsbg949tP12l2nyHiR64w7ylZ+6yldt/O/mNuAcW33MupL5LqLuch33hOV21dl0c+tz9RFdy0Zk37Lo2R+4dxdrapb2mZ5Etb4OeN6oLnWz/pqbZ/IdfUdwfszp9A69e5NWDiu23/hEw/dtab7ErXH6hNeZ9wo5ghb+avumPRV+7sY9Sk6X/bZ2D7xRjxldl15LWK2vsiHv8YSype62OOTtM3yJHxuGOch1gPV2rq/K8zD9huqSN9RMrfInLW3lOkb6J98+7ky6lGM1pJpsx45Dj1wo/wicl/JmPRV+4tprzN7FrnOPkXT+8fvieDbLwpf/V1p+r6Sdtuq/xEy96xOrenYaj8Rn//O2IcoRn9innGS/j+zRM1xhMyd9UWuax81VozsH+Dbb0NrX9Yl3efIZr3G3csov5j1MIq1fDVdv51tR8xyb8QXbr84ZL+WorPXa+v2HeHrnK559ugpxTN7eTPrfGcsOfoT8xonOt9RMnfWF5m/84ncL77sS7wBZY+dLlmvp9qs17h7yfwi+5j1kL5qezWq0/WbvdS+MkZ82VZ6I65ce8t+U9brE+XabvqXPPxVxSivdSE9an2Tne8krPNmnIeddtHF5YFn7BEyt/PueUuv/mpfgNsAyGvo+hde12uxXuOOsFWj83dxli/kOlC62qL2XPuSzTL3rYx7Vr+z69u6ts62l9qDddHVdVzGpO9ErPVmbJkHK7q4PHDbjpL7nbd+V93V6/xaX/Ql34KyR5H9f/V9Je01RqTtXrZqWHec7ZKjn2Z5Ja5R+xn1X+PTtzp5jSNddNfWxR3BOcQof9pFruueE/G5YVwPLw9apG3kt7TtKNqf+VLO6qUu6noltvofXUeNcZ6M34v3Zg7r9XciQuus7T8rSNurUQ33lbVHeo0XF9vKX1GYa495LSKvx/a8PttqnPUjjPKLrkbGdXtOwueGcXd4o8Pt3ojywG1/BOdxXuPcXb3Uc69tK7Gnf8u8jnpNdX0P3pt1bZv91EzWqjEv4vadp2rM+k5/9ZkX9vl06rXMrk8yry3XF/3h740zX9ae9dHtOQlrvBkLrfNwhW16UIUP2n5R1/fiPjJP6vnGZuk+rFtW2yLc3spG/UsfXUe9prq+ly53SueVrJ+7qDGvwvVcY7budEnHWp6RvN7ULautro/Q5R/9zskybdYtT8Jaf2ub9bSJzt7EHPmxoR+/es9qiM5f4lb8LWl73qK7HjPyfen3XuewB9HVqjL5sr3qrHffnyPddDYz830C9zO7ptm62X/4HjGjepIa0P4FW2RsxK3444Qd6/w0ReppS7pYx3h9L96feWrOjOl6qHErkte0dT1d7Ei/h27/LL+k1yL32PZKsk7tx71U3XT+Kme+T0j3X6+pixG5Hu2/l6wlRvUl/WcIIn017iR8/qcpRD1IS39nKJ/tItfVdy+uW3OKuq4x1jvbauQ15fWItKUupOf1iRqzl27/KP/o+2LLtL+K7Cd1MfNVm3XJvT5T7feuzcxuKb+xvcst0l514fW9dLU628zXxZ2Az39nLOkDTV0yf+WrB9ztOcqeGpZd3dxn24pkzyJ7rv173e155Bq38nk9+r7Y8pEe9tDVqrrofJKdX9zj63TJbp/Y2ptxdc9em9eSaat+r+/F+yRrrrTNfF3cCfj8T1NI+kBTT5voDjhtjj9C1s0aW7asWdcrkj1K+rqqLrye7TnCVr7qF44xGfMCrt9bumbWsk3r1EXtabZOXTJzWRedvbM5l9api1GcSF+3t9qsz/IU34/vgLdwnqzX2Wa+1E/E2m/GJu3Ce/PQ038PXa6Zrf6pbvqP9vAOsmfL7jrs764rfdbvZSvfyC+0Tv2VuE7tTdQ+On3PvpQZL7o8YpQrdbEVJ+lYkesuJvUa18VkjiOMcmUPtUbaUj8Ja7wZizzo2SHXuLrnXrxfpG5c2z799jlrWk/binT9dddhv9adPW1HcF6RtcRWvc7/KtznqPaWvic2ZbVnnowd5er2py4yLv11fxdT48XeHPcyy+V6wusuNvWTsMabsciDnh1yZxOp34vr1vqi1tmyP9LHK8n+8hpE2qoutLae/nupeTNX1hjV6/yvIOtt1e5ixN4c6U97Z8vYqou637qYrffs2YqX1Nq68Ppeuvwi11lrpJ+M9b4zFvXQU7fsbEdxrsQ2ya7uyP5IH68k++uuofN3PuH1vdQ8wjbJzF9jZutn455UI3VR111MtXU5uti0W+/2iiM+651/tEcciRdaW7+HPfnSZ11kjOVJ+NwwFt3Biq1Dn9mO0NVNmTW27LatRvbXXUPn34q9l1Fey8xfa416eQVdzdqPSbv10b5RrMj4rb2ixlmvsZ0+sjlH6rMcGS+6/fbdQ+7PmlUXdZ0xlifhs8NYh9UdYtVFjRU15iiZ2zltqzWq39T1auR15DWIep2jWF9f6vcwy5u+/Bnj0R4h2yvoarpW9mDbKM66yHXdK3J/l0ukT2Qe27vYLmdn6+JnObS2Xv019h5yf9aY5e/iLU/C59+Mu0Oc6Za2ZY6j1By13sxvvcasyJ7rqLqY+e5F+7fy5s8Yi9wjHu1hi5o/69uXtlFc3aN16pa23bM/baKzdzHWO5vItfdXW6d3NpH6XjKX6NadXm3edxI+/2Ys8hBFHmTVjW2SaT9C5ujqdevqS9uqZI+SeV3WRb2WXFffvXQ1q15l9T3awwbXv8sg82c995K26tN6j25su2e/pHOM7LlP1D2iixFaW+9sVbfsbPfiPco1yt3pGZ/+k7DOd8bW83BFPeCMs8z4I2QOy7S5Vv0ZY+F1xq9I7Vtyz7VkTI0/wixf1jWdr4t7Nsrv/mptS9uqL/fu0auscUJr6yLXNVfuEek/sqezZbz1me0etKfWqbbqF1m38y/OOt8Z+9DSVn152I5L31H21vy//+dnPa8zx4rUvkX2nNeZ9tzX5biXmjtzzWrNfK/CdSRrH2lLX43Tekv3vlGc6NbWhf1pH+lpsxztsay20Vpk/BG0d5RXdP5q6/YvzueGsQ9pdqj5Jpr23Jv6UTL3nhoZb1/aVqS7nuw5e0977hPpu5fM1eW17GrN9r6KUU+WtnU95Xqkiz1x1iVzX83R7eniLcXWHstqy/gt/73k3lpHZC3roz32n4C1/j5j09lE2mvMZf3Q32fsfKMaTb1va/FlO+XfZ1xl+gb6U/4+49RNtY3iL/qr/q7aH3+nwqzPSX/WV7wnVuTbudcz3zpvU/z8fcZ7qIdq2dmE7KmLuj5C1swae/4eis62Kl3fvi7bvbYu6j7r97KV1zLz15j0pf4Kup46m6TtIx320Z2vyPU9f3aT+uKs89MU1iXrQVdbd/C2HSFzCufc8/dQpO2RHt5B13fVxWxdffcwy+ufLZbN/rRLr/stX8D1Tdb1sqfOJroYra3DPrrzzXOUXp9LMdp3Ij7/nbFkPdj6XbHofjXMg7ftCMpRe6iy82fNul6RvJbuuuo1Zlz1W7+HWV7/bHHmTrtt1f9qRj2Last+yvrH1x7Q051nnvPojEf7TsTnhnEeWD3o/JXP/u5XQ5H7j5J5a91as/pFF7ci2XPqYuTzdXW2e/E+5enypj1tKYv/5UMu+3PtxLaMkyx93iTMyfMU9exHZzz6ndWJ+Px3xqI7wJTdB9P5H2FUR3S+tEnWPauR/dVe9/gkq+0ImUfkOvNnjKi1tX6kjz1kLdHVTuk4y+Ri4+14B/Vc61nnGWeMXtbqHseehM9/Z5wHmHhdY2p82o6SH1zVReerdet6NbpryOvr9Izt9h9hlH9kq/7cb9+LuP0p/J7a6UvpuC/bH//8r1cJA3xe3VnXMy5n2+7x+gR8/jvj2YF2thovadtRcn+t1dXZ8q9I1/NMt7StizuC9mZ+0dlE1qq6eKSPe5jV7np0TMZW26Is8fY+Out6jhk32uP1Cfj8d8azA03SL+mYtB8l8wrnrnVE2qrf+1fEfYrsdaSnzbLa7uTbTyhknc5mmb4ad7CPuxnVrn10cY1t1a8rrn1depT8aI95tnl+aRe5Hu3J+MVZ4804ddH5JO23FGk/Subt6o1sWbeuVyOvQeS1dteUNstqO8qojnWTa+mum/pFvnJw3H4B6Wq7v7pO0hZ7VxrI1+Hrr09W6FH1fW55fmnPM0/dstpOwBpvxqmL7jDTlrLuPULuzXoia3Q279X6kR5eTV7DqOdcZ4zlaN+9zOponXrKLuYr18sHx6y/rx6uzGySsXeFgXzrIfsN/SM97ji7oW4yx0lY6zvjThcZmz6vrR8l81TZ+bq6Wj/Swzvo+q8/0+1ryJhu39FrrftrHdtTH8WIWL9qcNz+V+ZRf6lLap16+kTYPjWQVfdWu/Zb9G+xr6bW95kNehvqufckrPWdschD7A55tu8RXMP5upqdLdeP9vBquv67n+k2Xttf9SN0+22b1ckY25q4lw6OUX+lh6lPyOb1Rb512F241or6w35L72/pcVJ/V5/W694T8LlhLOpBCq2t1//rzvpo3xFmObv/E3DWx9Ee3sGo/yrrGWT8s661q5Oyq9P5JW1P/SI94Lr/jtC+HYvag+h6Kv3dYmPPI/3t4Vv+rD/qV2SvXz2+lI36V2qfdY/obIvz2WGch9zpfmurB1tt1o8wyinyrTEZ7Xmkj1fjntVj7b+urYv0V98Bhn8g5pxZq9PTJkYx9jfSQ+nQz/x2ubueOp/1jRzfhuaD/LjWWld0PTZ9WX9mfz/YUf+bLqQ7PvdZPwmffzMWeXB54JZ58LM9R+lyVjnyuXbqq1J7nK2li+767HuELq/IurUH0fm7HF47rq6t38H1F5JRrrSnLqpPbOW4oAF6G6Y7BmCN/TaAaz2vB7VvcWIQv9XPYbp62U/Ty82WPusn4fNvxt1h18NNu/8f9Iyx/yiZp9a91yd9Vdy36HpO/yzW+iPcU2fLP8shurX1O2n/rzzLLr9k1k/ddDm62Iv8MXD9X/fm2+UVue5iOp+oOS+o9tPp6lVdZC+2pc/6SfjcMO4OLQ/XyJd2/dNH1kX6HyHz1H5qjbqWXvesSPZtmbaRbimk+1ofYVTHue/xi1GM9cyT+lFqblFrW478db/kbJ99W/tS1hwi42c50idqji/51IGc+bMP62L2ZzmjPSfgc8O4O7R6wJ1va32EWmdPTeujmBXZ6nukV2nfQYY/Kia0zlr5OyFR/XW/yBj7qy3j7+TW/1bu2oPWne496RNH96Wc7Uu9yzGKt4yYQ9+/d4xqZl+jnwCyLfq6+e7k2+869F98ZfQq1nszzoN8x09TiNybdWY1radNeL0iW33Xa8h4U9eP0NWpPerBsy6qX9T9oq5rjPWD3L4/FqPctQetUxfP9kl3zNY+kfFJF2+9sT3tnzbKGl2Pta8aJ6Kvm+8OPHD1Gd/+u1yfP/NXDeXPvxmL7vC0zl8BtbZe460fxfszp9hTs7Otylbf0kW3rj7Lg1xvbFFzj+pYyt/ZhNZ1v9e5L/UHuA2gWf20iaxd4+vejN3rm8U96revsz2LrCG6ntImmb3UvrzeyXXIXvbc7s/CbShfePZA/uwf4PmgJH14IteO6dbVdxTvz5xbPeQekbZVqX37uup3cHlNImOtO+YRap5ZneqztC1jq27Z+R+k/UUlmfUhaXvGdbrY6xPSZbNumbZ7/NYb22hwHSZrubfEtqaX1reT2xvx1y+yfgPO/8z1mi810vYonx3GPqg8TMnZT0zkuvqOkvuzJzHqwXpnW5Xao69r9h1c6kJr6w9ye7OsPXU1RfpqzGjfyG/9CVwfzKwpssaoDzFbj3JUXdRYMbIJrWsOkXu62PDnW+JTaWp96yH76/QudoPrUL3E1uvR2v+Jb9+Nu8aTWO/NWDK/J3TM7O3t0UPJXFV2dVLvbCvia1KP1kcyY/L6RPqegXLNalS/9bqnxok9eZ7E9WEd1Uib0Np63SPSnzlm/swzs4m0V13sWNeh9VRcJ3uTzH6s1z9Xsqy2PWzEXq85Yp59Bp9/M84D9wFaCvvq25vo9h7Be5Urc47q1JqdbTW6/iW7ddUzJvUn8O3tuKuRfaSeNssubsv/RIbXYpm2rb5ST5vI/Vvx1SY5yrOV88v/0kEsXLfrR6TPcyH7FHXvDraua/SVxLN+kuRzwzgPrer1IEey7j1K1ss8szoZ2/lXo+tfZO95Tal3tidye+PInkSuqy9ts7iMSZv1J/Pt7SnrSI56G/lyr5jF1PiM3fJZFxlb9114+SCe9SNqf5alzx95jnDJ4e+K/TVGyyM1gs8N4zy0LV2yW1sXXh8hc1nPelUXGSvqejVm/dtXbdZrnNdP5McQE7nuatsmmXus577cn/oL0LUMrydr5nrm62Ikte508WTf7Zpezawf0fUnaX/GWT/KJUde9/A78kfrfPH574x9oCIP0PbucHNfjT9C5rLe2YT0rGm9xq1I9lj77a7J/rTVfU/keqNn/lFP2Ytl7rFe84ziXsTtwVUd91B7qj7r2V/uqTaR+zJWdHv3+r7029cv72Kjn29+keuMy5gdjL6GuHLJOfI/63zW+M5Y1APMdfVVm/WjdLm2bEJr68/o49V0fec1dXraLG17Ad/ePmpPQuvaS+fLHmt81V+IruV6PVmv9tnpNV50tvSJUWz6u1hRfMM3wVcz6tW6pHuvMaL6d3C9zkmsB24O5OnwPsA6b8azA7YuHJPx6T9CV2tkc820i7peEfee11F1kdeSNkvbXsjt4chauXY/WqcuurhZ/Bu4DmW/QdUeun5k87qL73xprzEm4wd7v/X6bpp+vuki111M59/DJXY2YLtfmDrbUdZ5MxZ5gLanLjn7GeSjjGqJtAnXrLHP6uWVZM/Zb+29XptwTPpezO3NrPag9UgXnU+y87+Z66DTNbkHkb1lj2nLnmv/Xueeuj9ll+sib719kuhneC2OGdmqfye+dv90RHcWt5gnvxWLzw1jH1Q9aMvucCXzZ5BF+o+i/a7tXPXnF62ndGy3f0WyZ5HrkZ42y8zxBjyUrw/CqE8hvevTtpH/A9yuR2Qv2XPaumtIfeaXzLX4sruPWy+fpvT3Q5/ZhHTnSPtOrudw2TcatrLb9+wz++PPC1/6W7ldbB6qGH0I1qs0l/WR31pd++jqJE2tYfxl/bHf4k34cd6ja+j0tImv9SoP8I/P0HTXklxsK31W1zcy9Tjre69PDGKXGbwNt/vUdNcwszW+I9c7u6dedc98bBgDwJzbcBbNkPlGtcV65eEL/w7DGABgAT77B3gAAHCFYQwAsAAMYwCABWAYAwAsAMMYAGABGMYAAAvAMAYAWACGMQDAAjCMAQAWgGEMALAADGMAgAVgGAMALADDGABgARjGAAALwDAGAFgAhjEAwAIwjAEAFoBhDACwAAxjAIAFYBgDACwAwxgAYAEYxgAAC8AwBgBYAIYxAMACMIwBABaAYQwAsAAMYwCABWAYAwAsAMMYAGABGMYAAAvAMAYAWACGMQDAAjCMAQAWgGEMALAADGMAgAVgGAMALADDGABgARjGAAALwDAGAFgAhjEAwAIwjAEAFoBhDACwAAxjAIAFYBgDACwAwxgAYAEYxgAAC8AwBgBYAIYxAMACMIwBABaAYQwAsAAMYwCABWAYAwAsAMMYAGABGMYAAAvAMAYAWACGMQDAAjCMAQAWgGEMALAADGMAgAVgGAMALADDGABgARjGAAALwDAGAFgAhjEAwAIwjAEAFoBhDACwAAxjAIAFYBgDACwAwxgAYAEYxgAAC8AwBgBYAIYxAMACMIwBABaAYQwAsAAMYwCABWAYAwAsAMMYAGABGMYAAAvAMAYAWACGMQDAAjCMAQAWgGEMALAADGMAgAVgGAMALADDGABgARjGAAALwDAGAFgAhjEAwAIwjAEAFoBhDACwAAxjAIAFYBgDACwAwxgAYAEYxgAAC8AwBgBYAIYxAMACMIwBABaAYQwAsAAMYwCABWAYAwAsAMMYAGABGMYAAAvAMAYAWACGMQDAAjCMAQAWgGEMALAADGMAgAVgGAMALADDGABgARjGAAALwDAGAFgAhjEAwAIwjAEAFoBhDACwAAxjAIAFYBgDACwAwxgAYAEYxgAAC8AwBgBYAIYxAMACMIwBABaAYQwAsAAMYwCAj/OXv/x/l1/EQI1KES8AAAAASUVORK5CYII=;" vertex="1" parent="1">
          <mxGeometry x="121" y="891" width="41.28" height="40" as="geometry" />
        </mxCell>
        <mxCell id="e9APgle3LdxRnGONQ-Bw-14" value="" style="rounded=0;whiteSpace=wrap;html=1;fillColor=#ffe6cc;strokeColor=#d79b00;" vertex="1" parent="1">
          <mxGeometry x="430" y="850" width="190" height="100" as="geometry" />
        </mxCell>
        <mxCell id="e9APgle3LdxRnGONQ-Bw-13" value="存储资源池" style="rounded=0;whiteSpace=wrap;html=1;shadow=0;" vertex="1" parent="1">
          <mxGeometry x="430" y="850" width="190" height="30" as="geometry" />
        </mxCell>
        <mxCell id="e9APgle3LdxRnGONQ-Bw-15" value="" style="rounded=0;whiteSpace=wrap;html=1;fillColor=#ffe6cc;strokeColor=#d79b00;" vertex="1" parent="1">
          <mxGeometry x="630" y="850" width="190" height="100" as="geometry" />
        </mxCell>
        <mxCell id="e9APgle3LdxRnGONQ-Bw-16" value="网络资源池" style="rounded=0;whiteSpace=wrap;html=1;shadow=0;" vertex="1" parent="1">
          <mxGeometry x="630" y="850" width="190" height="30" as="geometry" />
        </mxCell>
        <mxCell id="e9APgle3LdxRnGONQ-Bw-17" value="" style="rounded=0;whiteSpace=wrap;html=1;fillColor=#ffe6cc;strokeColor=#d79b00;" vertex="1" parent="1">
          <mxGeometry x="830" y="850" width="190" height="100" as="geometry" />
        </mxCell>
        <mxCell id="e9APgle3LdxRnGONQ-Bw-18" value="安全资源池" style="rounded=0;whiteSpace=wrap;html=1;shadow=0;" vertex="1" parent="1">
          <mxGeometry x="830" y="850" width="190" height="30" as="geometry" />
        </mxCell>
        <mxCell id="e9APgle3LdxRnGONQ-Bw-19" value="" style="shape=ext;double=1;rounded=0;whiteSpace=wrap;html=1;" vertex="1" parent="1">
          <mxGeometry x="101" y="477" width="460" height="220" as="geometry" />
        </mxCell>
        <mxCell id="e9APgle3LdxRnGONQ-Bw-20" value="RAG（检索增强分析）" style="rounded=0;whiteSpace=wrap;html=1;strokeColor=none;fillColor=none;" vertex="1" parent="1">
          <mxGeometry x="101" y="477" width="151" height="50" as="geometry" />
        </mxCell>
        <mxCell id="e9APgle3LdxRnGONQ-Bw-21" value="" style="shape=ext;double=1;rounded=0;whiteSpace=wrap;html=1;" vertex="1" parent="1">
          <mxGeometry x="570" y="477" width="450" height="220" as="geometry" />
        </mxCell>
        <mxCell id="e9APgle3LdxRnGONQ-Bw-22" value="RAG（检索增强分析）" style="rounded=0;whiteSpace=wrap;html=1;strokeColor=none;fillColor=none;" vertex="1" parent="1">
          <mxGeometry x="570" y="477" width="151" height="50" as="geometry" />
        </mxCell>
        <mxCell id="e9APgle3LdxRnGONQ-Bw-23" value="情报知识" style="rounded=0;whiteSpace=wrap;html=1;" vertex="1" parent="1">
          <mxGeometry x="116.5" y="535" width="84.5" height="40" as="geometry" />
        </mxCell>
        <mxCell id="e9APgle3LdxRnGONQ-Bw-24" value="漏洞知识" style="rounded=0;whiteSpace=wrap;html=1;" vertex="1" parent="1">
          <mxGeometry x="221" y="535" width="84.5" height="40" as="geometry" />
        </mxCell>
        <mxCell id="e9APgle3LdxRnGONQ-Bw-25" value="政策法规" style="rounded=0;whiteSpace=wrap;html=1;" vertex="1" parent="1">
          <mxGeometry x="356.5" y="535" width="84.5" height="40" as="geometry" />
        </mxCell>
        <mxCell id="e9APgle3LdxRnGONQ-Bw-26" value="专家知识" style="rounded=0;whiteSpace=wrap;html=1;" vertex="1" parent="1">
          <mxGeometry x="461" y="535" width="84.5" height="40" as="geometry" />
        </mxCell>
        <mxCell id="e9APgle3LdxRnGONQ-Bw-27" value="漏洞知识" style="rounded=0;whiteSpace=wrap;html=1;" vertex="1" parent="1">
          <mxGeometry x="291" y="640" width="84.5" height="40" as="geometry" />
        </mxCell>
        <mxCell id="e9APgle3LdxRnGONQ-Bw-28" value="……" style="rounded=0;whiteSpace=wrap;html=1;fillColor=none;strokeColor=none;" vertex="1" parent="1">
          <mxGeometry x="291" y="535" width="84.5" height="40" as="geometry" />
        </mxCell>
        <mxCell id="e9APgle3LdxRnGONQ-Bw-34" value="" style="endArrow=classic;html=1;rounded=0;exitX=0.5;exitY=1;exitDx=0;exitDy=0;entryX=0.5;entryY=0;entryDx=0;entryDy=0;" edge="1" parent="1" source="e9APgle3LdxRnGONQ-Bw-23" target="e9APgle3LdxRnGONQ-Bw-27">
          <mxGeometry width="50" height="50" relative="1" as="geometry">
            <mxPoint x="181" y="650" as="sourcePoint" />
            <mxPoint x="231" y="600" as="targetPoint" />
            <Array as="points">
              <mxPoint x="159" y="610" />
              <mxPoint x="333" y="610" />
            </Array>
          </mxGeometry>
        </mxCell>
        <mxCell id="e9APgle3LdxRnGONQ-Bw-35" value="嵌入式向量模型" style="rounded=0;whiteSpace=wrap;html=1;" vertex="1" parent="1">
          <mxGeometry x="121" y="640" width="150" height="40" as="geometry" />
        </mxCell>
        <mxCell id="e9APgle3LdxRnGONQ-Bw-36" value="混合检索技术" style="rounded=0;whiteSpace=wrap;html=1;" vertex="1" parent="1">
          <mxGeometry x="391" y="640" width="150" height="40" as="geometry" />
        </mxCell>
        <mxCell id="e9APgle3LdxRnGONQ-Bw-37" value="" style="endArrow=classic;html=1;rounded=0;exitX=0.5;exitY=1;exitDx=0;exitDy=0;entryX=0.5;entryY=0;entryDx=0;entryDy=0;" edge="1" parent="1" source="e9APgle3LdxRnGONQ-Bw-26" target="e9APgle3LdxRnGONQ-Bw-27">
          <mxGeometry width="50" height="50" relative="1" as="geometry">
            <mxPoint x="441" y="340" as="sourcePoint" />
            <mxPoint x="491" y="290" as="targetPoint" />
            <Array as="points">
              <mxPoint x="503" y="610" />
              <mxPoint x="333" y="610" />
            </Array>
          </mxGeometry>
        </mxCell>
        <mxCell id="e9APgle3LdxRnGONQ-Bw-39" value="" style="endArrow=none;html=1;rounded=0;entryX=0.5;entryY=1;entryDx=0;entryDy=0;" edge="1" parent="1" target="e9APgle3LdxRnGONQ-Bw-24">
          <mxGeometry width="50" height="50" relative="1" as="geometry">
            <mxPoint x="263" y="610" as="sourcePoint" />
            <mxPoint x="271" y="570" as="targetPoint" />
          </mxGeometry>
        </mxCell>
        <mxCell id="e9APgle3LdxRnGONQ-Bw-40" value="" style="endArrow=none;html=1;rounded=0;entryX=0.5;entryY=1;entryDx=0;entryDy=0;exitX=0.5;exitY=0;exitDx=0;exitDy=0;" edge="1" parent="1" source="e9APgle3LdxRnGONQ-Bw-27" target="e9APgle3LdxRnGONQ-Bw-25">
          <mxGeometry width="50" height="50" relative="1" as="geometry">
            <mxPoint x="329" y="639" as="sourcePoint" />
            <mxPoint x="361" y="580" as="targetPoint" />
            <Array as="points">
              <mxPoint x="333" y="610" />
              <mxPoint x="399" y="610" />
            </Array>
          </mxGeometry>
        </mxCell>
        <mxCell id="e9APgle3LdxRnGONQ-Bw-42" value="记忆" style="rounded=0;whiteSpace=wrap;html=1;" vertex="1" parent="1">
          <mxGeometry x="603.25" y="640" width="84.5" height="40" as="geometry" />
        </mxCell>
        <mxCell id="e9APgle3LdxRnGONQ-Bw-43" value="规划" style="rounded=0;whiteSpace=wrap;html=1;" vertex="1" parent="1">
          <mxGeometry x="700" y="640" width="84.5" height="40" as="geometry" />
        </mxCell>
        <mxCell id="e9APgle3LdxRnGONQ-Bw-44" value="工具" style="rounded=0;whiteSpace=wrap;html=1;" vertex="1" parent="1">
          <mxGeometry x="800" y="640" width="84.5" height="40" as="geometry" />
        </mxCell>
        <mxCell id="e9APgle3LdxRnGONQ-Bw-45" value="行动" style="rounded=0;whiteSpace=wrap;html=1;" vertex="1" parent="1">
          <mxGeometry x="900" y="640" width="84.5" height="40" as="geometry" />
        </mxCell>
        <mxCell id="e9APgle3LdxRnGONQ-Bw-46" value="长期记忆" style="rounded=0;whiteSpace=wrap;html=1;" vertex="1" parent="1">
          <mxGeometry x="580" y="536" width="70" height="40" as="geometry" />
        </mxCell>
        <mxCell id="e9APgle3LdxRnGONQ-Bw-47" value="短期记忆" style="rounded=0;whiteSpace=wrap;html=1;" vertex="1" parent="1">
          <mxGeometry x="657.75" y="536" width="63.25" height="40" as="geometry" />
        </mxCell>
        <mxCell id="e9APgle3LdxRnGONQ-Bw-48" value="任务分解" style="rounded=0;whiteSpace=wrap;html=1;" vertex="1" parent="1">
          <mxGeometry x="732" y="536" width="68" height="40" as="geometry" />
        </mxCell>
        <mxCell id="e9APgle3LdxRnGONQ-Bw-49" value="事件API" style="rounded=0;whiteSpace=wrap;html=1;" vertex="1" parent="1">
          <mxGeometry x="920" y="536" width="84.5" height="40" as="geometry" />
        </mxCell>
        <mxCell id="e9APgle3LdxRnGONQ-Bw-50" value="自我反思" style="rounded=0;whiteSpace=wrap;html=1;" vertex="1" parent="1">
          <mxGeometry x="810" y="536" width="68" height="40" as="geometry" />
        </mxCell>
        <mxCell id="e9APgle3LdxRnGONQ-Bw-51" value="……" style="rounded=0;whiteSpace=wrap;html=1;fillColor=none;strokeColor=none;" vertex="1" parent="1">
          <mxGeometry x="860" y="536" width="84.5" height="40" as="geometry" />
        </mxCell>
        <mxCell id="e9APgle3LdxRnGONQ-Bw-52" value="" style="endArrow=none;html=1;rounded=0;" edge="1" parent="1">
          <mxGeometry width="50" height="50" relative="1" as="geometry">
            <mxPoint x="581" y="610" as="sourcePoint" />
            <mxPoint x="1010" y="610" as="targetPoint" />
          </mxGeometry>
        </mxCell>
        <mxCell id="e9APgle3LdxRnGONQ-Bw-53" value="" style="rounded=0;whiteSpace=wrap;html=1;fillColor=#dae8fc;strokeColor=#6c8ebf;" vertex="1" parent="1">
          <mxGeometry x="88" y="238" width="942" height="182" as="geometry" />
        </mxCell>
        <mxCell id="e9APgle3LdxRnGONQ-Bw-54" value="数据分析层" style="rounded=0;whiteSpace=wrap;html=1;fillColor=#d5e8d4;strokeColor=#82b366;" vertex="1" parent="1">
          <mxGeometry x="88" y="238" width="942" height="30" as="geometry" />
        </mxCell>
        <mxCell id="e9APgle3LdxRnGONQ-Bw-56" value="智能平台层" style="rounded=0;whiteSpace=wrap;html=1;fillColor=#e1d5e7;strokeColor=#9673a6;" vertex="1" parent="1">
          <mxGeometry x="89" y="430" width="942" height="30" as="geometry" />
        </mxCell>
        <mxCell id="e9APgle3LdxRnGONQ-Bw-57" value="" style="rounded=0;whiteSpace=wrap;html=1;fillColor=#bac8d3;strokeColor=#23445d;" vertex="1" parent="1">
          <mxGeometry x="105.5" y="278" width="114.5" height="130" as="geometry" />
        </mxCell>
        <mxCell id="e9APgle3LdxRnGONQ-Bw-58" value="数据采集" style="rounded=0;whiteSpace=wrap;html=1;fillColor=none;strokeColor=none;" vertex="1" parent="1">
          <mxGeometry x="116.5" y="278" width="84.5" height="40" as="geometry" />
        </mxCell>
        <mxCell id="e9APgle3LdxRnGONQ-Bw-59" value="流量数据" style="rounded=0;whiteSpace=wrap;html=1;" vertex="1" parent="1">
          <mxGeometry x="116.5" y="318" width="84.5" height="30" as="geometry" />
        </mxCell>
        <mxCell id="e9APgle3LdxRnGONQ-Bw-60" value="日志数据" style="rounded=0;whiteSpace=wrap;html=1;" vertex="1" parent="1">
          <mxGeometry x="116.5" y="358" width="84.5" height="30" as="geometry" />
        </mxCell>
        <mxCell id="e9APgle3LdxRnGONQ-Bw-61" value="数据采集" style="rounded=0;whiteSpace=wrap;html=1;fillColor=none;strokeColor=none;" vertex="1" parent="1">
          <mxGeometry x="251" y="278" width="84.5" height="40" as="geometry" />
        </mxCell>
        <mxCell id="e9APgle3LdxRnGONQ-Bw-62" value="" style="rounded=0;whiteSpace=wrap;html=1;fillColor=#bac8d3;strokeColor=#23445d;" vertex="1" parent="1">
          <mxGeometry x="240" y="278" width="114.5" height="130" as="geometry" />
        </mxCell>
        <mxCell id="e9APgle3LdxRnGONQ-Bw-63" value="清&lt;div&gt;洗&lt;/div&gt;" style="rounded=0;whiteSpace=wrap;html=1;" vertex="1" parent="1">
          <mxGeometry x="245" y="318" width="28" height="60" as="geometry" />
        </mxCell>
        <mxCell id="e9APgle3LdxRnGONQ-Bw-64" value="解&lt;div&gt;析&lt;/div&gt;" style="rounded=0;whiteSpace=wrap;html=1;" vertex="1" parent="1">
          <mxGeometry x="281" y="318" width="30" height="60" as="geometry" />
        </mxCell>
        <mxCell id="e9APgle3LdxRnGONQ-Bw-66" value="" style="rounded=0;whiteSpace=wrap;html=1;fillColor=#bac8d3;strokeColor=#23445d;" vertex="1" parent="1">
          <mxGeometry x="374.75" y="278" width="646.25" height="132" as="geometry" />
        </mxCell>
        <mxCell id="e9APgle3LdxRnGONQ-Bw-73" value="数据处理" style="rounded=0;whiteSpace=wrap;html=1;fillColor=none;strokeColor=none;" vertex="1" parent="1">
          <mxGeometry x="255" y="278" width="84.5" height="40" as="geometry" />
        </mxCell>
        <mxCell id="e9APgle3LdxRnGONQ-Bw-75" value="特征提取" style="rounded=0;whiteSpace=wrap;html=1;" vertex="1" parent="1">
          <mxGeometry x="319.5" y="318" width="30" height="60" as="geometry" />
        </mxCell>
        <mxCell id="e9APgle3LdxRnGONQ-Bw-69" value="大模型数据挖掘" style="rounded=0;whiteSpace=wrap;html=1;fillColor=none;strokeColor=none;" vertex="1" parent="1">
          <mxGeometry x="640" y="278" width="134.5" height="40" as="geometry" />
        </mxCell>
        <mxCell id="e9APgle3LdxRnGONQ-Bw-78" value="DDos识别" style="rounded=0;whiteSpace=wrap;html=1;" vertex="1" parent="1">
          <mxGeometry x="391" y="368" width="84.5" height="30" as="geometry" />
        </mxCell>
        <mxCell id="e9APgle3LdxRnGONQ-Bw-81" value="实时异常检测" style="rounded=0;whiteSpace=wrap;html=1;" vertex="1" parent="1">
          <mxGeometry x="391" y="326" width="84.5" height="30" as="geometry" />
        </mxCell>
        <mxCell id="e9APgle3LdxRnGONQ-Bw-82" value="恶意软件传播" style="rounded=0;whiteSpace=wrap;html=1;" vertex="1" parent="1">
          <mxGeometry x="482.75" y="368" width="84.5" height="30" as="geometry" />
        </mxCell>
        <mxCell id="e9APgle3LdxRnGONQ-Bw-83" value="性能指标分析" style="rounded=0;whiteSpace=wrap;html=1;" vertex="1" parent="1">
          <mxGeometry x="485.5" y="326" width="84.5" height="30" as="geometry" />
        </mxCell>
        <mxCell id="e9APgle3LdxRnGONQ-Bw-84" value="&lt;span style=&quot;font-size:10.5pt;mso-bidi-font-size:11.0pt;&lt;br/&gt;font-family:宋体;mso-ascii-font-family:Calibri;mso-ascii-theme-font:minor-latin;&lt;br/&gt;mso-fareast-theme-font:minor-fareast;mso-hansi-font-family:Calibri;mso-hansi-theme-font:&lt;br/&gt;minor-latin;mso-bidi-font-family:&amp;quot;Times New Roman&amp;quot;;mso-bidi-theme-font:minor-bidi;&lt;br/&gt;mso-ansi-language:EN-US;mso-fareast-language:ZH-CN;mso-bidi-language:AR-SA&quot;&gt;中间人&lt;/span&gt;&lt;span style=&quot;font-size:10.5pt;&lt;br/&gt;mso-bidi-font-size:11.0pt;font-family:宋体;mso-ascii-font-family:Calibri;&lt;br/&gt;mso-ascii-theme-font:minor-latin;mso-fareast-theme-font:minor-fareast;&lt;br/&gt;mso-hansi-font-family:Calibri;mso-hansi-theme-font:minor-latin;mso-bidi-font-family:&lt;br/&gt;&amp;quot;Times New Roman&amp;quot;;mso-bidi-theme-font:minor-bidi;mso-ansi-language:EN-US;&lt;br/&gt;mso-fareast-language:ZH-CN;mso-bidi-language:AR-SA&quot;&gt;攻击&lt;/span&gt;" style="rounded=0;whiteSpace=wrap;html=1;" vertex="1" parent="1">
          <mxGeometry x="580" y="368" width="84.5" height="30" as="geometry" />
        </mxCell>
        <mxCell id="e9APgle3LdxRnGONQ-Bw-85" value="&lt;span style=&quot;font-size:10.5pt;mso-bidi-font-size:11.0pt;&lt;br/&gt;font-family:宋体;mso-ascii-font-family:Calibri;mso-ascii-theme-font:minor-latin;&lt;br/&gt;mso-fareast-theme-font:minor-fareast;mso-hansi-font-family:Calibri;mso-hansi-theme-font:&lt;br/&gt;minor-latin;mso-bidi-font-family:&amp;quot;Times New Roman&amp;quot;;mso-bidi-theme-font:minor-bidi;&lt;br/&gt;mso-ansi-language:EN-US;mso-fareast-language:ZH-CN;mso-bidi-language:AR-SA&quot;&gt;网络钓鱼攻击&lt;/span&gt;" style="rounded=0;whiteSpace=wrap;html=1;" vertex="1" parent="1">
          <mxGeometry x="580" y="326" width="100" height="30" as="geometry" />
        </mxCell>
        <mxCell id="e9APgle3LdxRnGONQ-Bw-86" value="&lt;span style=&quot;font-size:10.5pt;mso-bidi-font-size:11.0pt;&lt;br/&gt;font-family:宋体;mso-ascii-font-family:Calibri;mso-ascii-theme-font:minor-latin;&lt;br/&gt;mso-fareast-theme-font:minor-fareast;mso-hansi-font-family:Calibri;mso-hansi-theme-font:&lt;br/&gt;minor-latin;mso-bidi-font-family:&amp;quot;Times New Roman&amp;quot;;mso-bidi-theme-font:minor-bidi;&lt;br/&gt;mso-ansi-language:EN-US;mso-fareast-language:ZH-CN;mso-bidi-language:AR-SA&quot;&gt;暴力破解&lt;/span&gt;" style="rounded=0;whiteSpace=wrap;html=1;" vertex="1" parent="1">
          <mxGeometry x="692" y="326" width="84.5" height="30" as="geometry" />
        </mxCell>
        <mxCell id="e9APgle3LdxRnGONQ-Bw-87" value="&lt;span style=&quot;font-size:10.5pt;mso-bidi-font-size:&lt;br/&gt;11.0pt;font-family:&amp;quot;Calibri&amp;quot;,sans-serif;mso-ascii-theme-font:minor-latin;&lt;br/&gt;mso-fareast-font-family:宋体;mso-fareast-theme-font:minor-fareast;mso-hansi-theme-font:&lt;br/&gt;minor-latin;mso-bidi-font-family:&amp;quot;Times New Roman&amp;quot;;mso-bidi-theme-font:minor-bidi;&lt;br/&gt;mso-ansi-language:EN-US;mso-fareast-language:ZH-CN;mso-bidi-language:AR-SA&quot; lang=&quot;EN-US&quot;&gt;URL&lt;/span&gt;&lt;span style=&quot;font-size:10.5pt;mso-bidi-font-size:11.0pt;font-family:宋体;mso-ascii-font-family:&lt;br/&gt;Calibri;mso-ascii-theme-font:minor-latin;mso-fareast-theme-font:minor-fareast;&lt;br/&gt;mso-hansi-font-family:Calibri;mso-hansi-theme-font:minor-latin;mso-bidi-font-family:&lt;br/&gt;&amp;quot;Times New Roman&amp;quot;;mso-bidi-theme-font:minor-bidi;mso-ansi-language:EN-US;&lt;br/&gt;mso-fareast-language:ZH-CN;mso-bidi-language:AR-SA&quot;&gt;解释&lt;/span&gt;" style="rounded=0;whiteSpace=wrap;html=1;" vertex="1" parent="1">
          <mxGeometry x="680" y="368" width="84.5" height="30" as="geometry" />
        </mxCell>
        <mxCell id="e9APgle3LdxRnGONQ-Bw-88" value="&lt;span style=&quot;font-size:10.5pt;mso-bidi-font-size:11.0pt;&lt;br/&gt;font-family:宋体;mso-ascii-font-family:Calibri;mso-ascii-theme-font:minor-latin;&lt;br/&gt;mso-fareast-theme-font:minor-fareast;mso-hansi-font-family:Calibri;mso-hansi-theme-font:&lt;br/&gt;minor-latin;mso-bidi-font-family:&amp;quot;Times New Roman&amp;quot;;mso-bidi-theme-font:minor-bidi;&lt;br/&gt;mso-ansi-language:EN-US;mso-fareast-language:ZH-CN;mso-bidi-language:AR-SA&quot;&gt;密码攻击&lt;/span&gt;" style="rounded=0;whiteSpace=wrap;html=1;" vertex="1" parent="1">
          <mxGeometry x="774.5" y="368" width="84.5" height="30" as="geometry" />
        </mxCell>
        <mxCell id="e9APgle3LdxRnGONQ-Bw-89" value="&lt;span style=&quot;font-size:10.5pt;mso-bidi-font-size:&lt;br/&gt;11.0pt;font-family:&amp;quot;Calibri&amp;quot;,sans-serif;mso-ascii-theme-font:minor-latin;&lt;br/&gt;mso-fareast-font-family:宋体;mso-fareast-theme-font:minor-fareast;mso-hansi-theme-font:&lt;br/&gt;minor-latin;mso-bidi-font-family:&amp;quot;Times New Roman&amp;quot;;mso-bidi-theme-font:minor-bidi;&lt;br/&gt;mso-ansi-language:EN-US;mso-fareast-language:ZH-CN;mso-bidi-language:AR-SA&quot; lang=&quot;EN-US&quot;&gt;DNS&lt;/span&gt;&lt;span style=&quot;font-size:10.5pt;mso-bidi-font-size:11.0pt;font-family:宋体;mso-ascii-font-family:&lt;br/&gt;Calibri;mso-ascii-theme-font:minor-latin;mso-fareast-theme-font:minor-fareast;&lt;br/&gt;mso-hansi-font-family:Calibri;mso-hansi-theme-font:minor-latin;mso-bidi-font-family:&lt;br/&gt;&amp;quot;Times New Roman&amp;quot;;mso-bidi-theme-font:minor-bidi;mso-ansi-language:EN-US;&lt;br/&gt;mso-fareast-language:ZH-CN;mso-bidi-language:AR-SA&quot;&gt;欺骗&lt;/span&gt;" style="rounded=0;whiteSpace=wrap;html=1;" vertex="1" parent="1">
          <mxGeometry x="793.5" y="326" width="84.5" height="30" as="geometry" />
        </mxCell>
        <mxCell id="e9APgle3LdxRnGONQ-Bw-90" value="&lt;span style=&quot;font-size:10.5pt;mso-bidi-font-size:&lt;br/&gt;11.0pt;font-family:&amp;quot;Calibri&amp;quot;,sans-serif;mso-ascii-theme-font:minor-latin;&lt;br/&gt;mso-fareast-font-family:宋体;mso-fareast-theme-font:minor-fareast;mso-hansi-theme-font:&lt;br/&gt;minor-latin;mso-bidi-font-family:&amp;quot;Times New Roman&amp;quot;;mso-bidi-theme-font:minor-bidi;&lt;br/&gt;mso-ansi-language:EN-US;mso-fareast-language:ZH-CN;mso-bidi-language:AR-SA&quot; lang=&quot;EN-US&quot;&gt;Web&lt;/span&gt;&lt;span style=&quot;font-size:10.5pt;mso-bidi-font-size:11.0pt;font-family:宋体;mso-ascii-font-family:&lt;br/&gt;Calibri;mso-ascii-theme-font:minor-latin;mso-fareast-theme-font:minor-fareast;&lt;br/&gt;mso-hansi-font-family:Calibri;mso-hansi-theme-font:minor-latin;mso-bidi-font-family:&lt;br/&gt;&amp;quot;Times New Roman&amp;quot;;mso-bidi-theme-font:minor-bidi;mso-ansi-language:EN-US;&lt;br/&gt;mso-fareast-language:ZH-CN;mso-bidi-language:AR-SA&quot;&gt;攻击&lt;/span&gt;" style="rounded=0;whiteSpace=wrap;html=1;" vertex="1" parent="1">
          <mxGeometry x="890" y="326" width="84.5" height="30" as="geometry" />
        </mxCell>
        <mxCell id="e9APgle3LdxRnGONQ-Bw-91" value="&lt;span style=&quot;font-size:10.5pt;mso-bidi-font-size:11.0pt;&lt;br/&gt;font-family:宋体;mso-ascii-font-family:Calibri;mso-ascii-theme-font:minor-latin;&lt;br/&gt;mso-fareast-theme-font:minor-fareast;mso-hansi-font-family:Calibri;mso-hansi-theme-font:&lt;br/&gt;minor-latin;mso-bidi-font-family:&amp;quot;Times New Roman&amp;quot;;mso-bidi-theme-font:minor-bidi;&lt;br/&gt;mso-ansi-language:EN-US;mso-fareast-language:ZH-CN;mso-bidi-language:AR-SA&quot;&gt;会话劫持&lt;/span&gt;" style="rounded=0;whiteSpace=wrap;html=1;" vertex="1" parent="1">
          <mxGeometry x="870" y="368" width="84.5" height="30" as="geometry" />
        </mxCell>
        <mxCell id="e9APgle3LdxRnGONQ-Bw-92" value="" style="rounded=0;whiteSpace=wrap;html=1;fillColor=#b0e3e6;strokeColor=#0e8088;" vertex="1" parent="1">
          <mxGeometry x="88" y="140" width="942" height="82" as="geometry" />
        </mxCell>
        <mxCell id="e9APgle3LdxRnGONQ-Bw-93" value="&lt;span&gt;数据展现层&lt;/span&gt;" style="rounded=0;whiteSpace=wrap;html=1;fillColor=#b1ddf0;strokeColor=#10739e;" vertex="1" parent="1">
          <mxGeometry x="88" y="140" width="942" height="30" as="geometry" />
        </mxCell>
        <mxCell id="e9APgle3LdxRnGONQ-Bw-119" value="告警信息" style="rounded=0;whiteSpace=wrap;html=1;" vertex="1" parent="1">
          <mxGeometry x="792" y="180" width="84.5" height="30" as="geometry" />
        </mxCell>
      </root>
    </mxGraphModel>
  </diagram>
</mxfile>
